<svg xmlns="http://www.w3.org/2000/svg" xmlns:xlink="http://www.w3.org/1999/xlink" viewBox="0,0,256,256" width="100px" height="100px" fill-rule="nonzero"><g fill="none" fill-rule="nonzero" stroke="none" stroke-width="1" stroke-linecap="butt" stroke-linejoin="miter" stroke-miterlimit="10" stroke-dasharray="" stroke-dashoffset="0" font-family="none" font-weight="none" font-size="none" text-anchor="none" style="mix-blend-mode: normal"><g transform="scale(2.56,2.56)"><path d="M12,45.268h38v32h-38z" fill="#fefdef"></path><path d="M48,78.268h-36c-0.552,0 -1,-0.447 -1,-1v-32c0,-0.553 0.448,-1 1,-1c0.552,0 1,0.447 1,1v31h35c0.552,0 1,0.447 1,1c0,0.553 -0.448,1 -1,1z" fill="#1f212b"></path><path d="M50,45.268h35v34h-35z" fill="#fefdef"></path><path d="M85,80.268h-35c-0.552,0 -1,-0.447 -1,-1v-34c0,-0.553 0.448,-1 1,-1h35c0.552,0 1,0.447 1,1v34c0,0.552 -0.448,1 -1,1zM51,78.268h33v-32h-33z" fill="#1f212b"></path><path d="M51,46.268h33v3h-33z" fill="#ceccbe"></path><path d="M12.03,45.268h-3.105l7.297,-19h4.355h13.114h49.31l5.63,19h-1.356z" fill="#f37e98"></path><path d="M88.631,46.268h-79.706c-0.33,0 -0.638,-0.162 -0.824,-0.434c-0.186,-0.272 -0.228,-0.617 -0.109,-0.925l7.297,-19c0.148,-0.387 0.52,-0.642 0.934,-0.642h66.777c0.443,0 0.833,0.291 0.959,0.716l5.631,19c0.089,0.303 0.031,0.63 -0.158,0.883c-0.189,0.253 -0.485,0.402 -0.801,0.402zM10.38,44.268h76.912l-5.038,-17h-65.345z" fill="#1f212b"></path><path d="M74.5,58.768v13h-14v-16h12" fill="#78cdd4"></path><path d="M74.5,72.264h-14c-0.274,0 -0.496,-0.222 -0.496,-0.496v-16c0,-0.274 0.222,-0.496 0.496,-0.496h12c0.274,0 0.496,0.222 0.496,0.496c0,0.274 -0.222,0.496 -0.496,0.496h-11.504v15.008h13.008v-12.504c0,-0.274 0.222,-0.496 0.496,-0.496c0.274,0 0.496,0.222 0.496,0.496v13c0,0.274 -0.222,0.496 -0.496,0.496z" fill="#1f212b"></path><path d="M67.5,72.264c-0.274,0 -0.496,-0.222 -0.496,-0.496v-16c0,-0.274 0.222,-0.496 0.496,-0.496c0.274,0 0.496,0.222 0.496,0.496v16c0,0.274 -0.222,0.496 -0.496,0.496z" fill="#1f212b"></path><path d="M30.5,76.768v-15.423c0,-3.618 -3.15,-6.578 -7,-6.578c-3.85,0 -7,2.96 -7,6.578v15.422h14z" fill="#b3b2c3"></path><path d="M30.5,77.264h-14c-0.274,0 -0.496,-0.222 -0.496,-0.496v-15.422c0,-3.9 3.363,-7.074 7.496,-7.074c4.133,0 7.496,3.174 7.496,7.074v15.422c0,0.274 -0.222,0.496 -0.496,0.496zM16.996,76.272h13.008v-14.926c0,-3.354 -2.917,-6.082 -6.504,-6.082c-3.587,0 -6.504,2.729 -6.504,6.082z" fill="#1f212b"></path><path d="M27.5,64.768v-1.692c0,-2.415 -1.8,-4.391 -4,-4.391c-2.2,0 -4,1.976 -4,4.391v1.692z" fill="#78a2d2"></path><path d="M27.5,65.264h-8c-0.274,0 -0.496,-0.222 -0.496,-0.496v-1.692c0,-2.695 2.017,-4.888 4.496,-4.888c2.479,0 4.496,2.192 4.496,4.888v1.692c0,0.274 -0.222,0.496 -0.496,0.496zM19.996,64.272h7.008v-1.196c0,-2.148 -1.572,-3.896 -3.504,-3.896c-1.932,0 -3.504,1.747 -3.504,3.896zM28.5,69.264h-1c-0.274,0 -0.496,-0.222 -0.496,-0.496c0,-0.274 0.222,-0.496 0.496,-0.496h1c0.274,0 0.496,0.222 0.496,0.496c0,0.274 -0.222,0.496 -0.496,0.496z" fill="#1f212b"></path><path d="M13,46.268h36v2h-36z" fill="#ceccbe"></path><path d="M42.5,65.768h-7v-9h8v7" fill="#78cdd4"></path><path d="M42.5,66.268h-7c-0.276,0 -0.5,-0.224 -0.5,-0.5v-9c0,-0.276 0.224,-0.5 0.5,-0.5h8c0.276,0 0.5,0.224 0.5,0.5v7c0,0.276 -0.224,0.5 -0.5,0.5c-0.276,0 -0.5,-0.224 -0.5,-0.5v-6.5h-7v8h6.5c0.276,0 0.5,0.224 0.5,0.5c0,0.276 -0.224,0.5 -0.5,0.5z" fill="#1f212b"></path><path d="M39.5,66.268c-0.276,0 -0.5,-0.224 -0.5,-0.5v-9c0,-0.276 0.224,-0.5 0.5,-0.5c0.276,0 0.5,0.224 0.5,0.5v9c0,0.276 -0.224,0.5 -0.5,0.5z" fill="#1f212b"></path><path d="M72.5,22.768h7v14h-7z" fill="#fed5b3"></path><path d="M79.5,37.268h-7c-0.276,0 -0.5,-0.224 -0.5,-0.5v-14c0,-0.276 0.224,-0.5 0.5,-0.5h7c0.276,0 0.5,0.224 0.5,0.5v14c0,0.276 -0.224,0.5 -0.5,0.5zM73,36.268h6v-13h-6z" fill="#1f212b"></path><path d="M80.5,23.768h-9c-0.55,0 -1,-0.45 -1,-1v0c0,-0.55 0.45,-1 1,-1h9c0.55,0 1,0.45 1,1v0c0,0.55 -0.45,1 -1,1z" fill="#fcba7f"></path><path d="M80.5,24.268h-9c-0.827,0 -1.5,-0.673 -1.5,-1.5c0,-0.827 0.673,-1.5 1.5,-1.5h9c0.827,0 1.5,0.673 1.5,1.5c0,0.827 -0.673,1.5 -1.5,1.5zM71.5,22.268c-0.276,0 -0.5,0.225 -0.5,0.5c0,0.275 0.224,0.5 0.5,0.5h9c0.276,0 0.5,-0.225 0.5,-0.5c0,-0.275 -0.224,-0.5 -0.5,-0.5zM46.5,49.268h-3c-0.276,0 -0.5,-0.224 -0.5,-0.5c0,-0.276 0.224,-0.5 0.5,-0.5h3c0.276,0 0.5,0.224 0.5,0.5c0,0.276 -0.224,0.5 -0.5,0.5zM40.5,49.268h-28c-0.276,0 -0.5,-0.224 -0.5,-0.5c0,-0.276 0.224,-0.5 0.5,-0.5h28c0.276,0 0.5,0.224 0.5,0.5c0,0.276 -0.224,0.5 -0.5,0.5zM85.5,50.268h-26c-0.276,0 -0.5,-0.224 -0.5,-0.5c0,-0.276 0.224,-0.5 0.5,-0.5h26c0.276,0 0.5,0.224 0.5,0.5c0,0.276 -0.224,0.5 -0.5,0.5zM69.5,31.268h-52c-0.276,0 -0.5,-0.224 -0.5,-0.5c0,-0.276 0.224,-0.5 0.5,-0.5h52c0.276,0 0.5,0.224 0.5,0.5c0,0.276 -0.224,0.5 -0.5,0.5zM66.5,34.268h-50c-0.276,0 -0.5,-0.224 -0.5,-0.5c0,-0.276 0.224,-0.5 0.5,-0.5h50c0.276,0 0.5,0.224 0.5,0.5c0,0.276 -0.224,0.5 -0.5,0.5zM64.5,37.268h-49c-0.276,0 -0.5,-0.224 -0.5,-0.5c0,-0.276 0.224,-0.5 0.5,-0.5h49c0.276,0 0.5,0.224 0.5,0.5c0,0.276 -0.224,0.5 -0.5,0.5zM56.5,50.268h-2c-0.276,0 -0.5,-0.224 -0.5,-0.5c0,-0.276 0.224,-0.5 0.5,-0.5h2c0.276,0 0.5,0.224 0.5,0.5c0,0.276 -0.224,0.5 -0.5,0.5z" fill="#1f212b"></path></g></g></svg>